HIERARCHY
ROOT joint_0
{
	OFFSET 0.000000 0.000000 0.000000
	CHANNELS 6 Xposition Yposition Zposition Zrotation Yrotation Xrotation 
	JOINT joint_1
	{
		OFFSET 17.107422 0.519409 105.452026
		CHANNELS 3 Zrotation Yrotation Xrotation
		JOINT joint_2
		{
			OFFSET 6.110352 -1.434082 97.381958
			CHANNELS 3 Zrotation Yrotation Xrotation
			JOINT joint_3
			{
				OFFSET 6.305908 -1.739990 97.255005
				CHANNELS 3 Zrotation Yrotation Xrotation
				JOINT joint_4
				{
					OFFSET 22.074707 -0.492493 131.077026
					CHANNELS 3 Zrotation Yrotation Xrotation
					JOINT joint_5
					{
						OFFSET 34.162842 2.248718 78.700928
						CHANNELS 3 Zrotation Yrotation Xrotation
						End Site
						{
							OFFSET 0.000000 0.000000 0.000000
						}
					}
				}
				JOINT joint_6
				{
					OFFSET 17.059082 -28.836914 72.664062
					CHANNELS 3 Zrotation Yrotation Xrotation
					JOINT joint_7
					{
						OFFSET 22.639893 -134.803833 -24.691040
						CHANNELS 3 Zrotation Yrotation Xrotation
						JOINT joint_8
						{
							OFFSET 7.301758 -32.590759 -269.966064
							CHANNELS 3 Zrotation Yrotation Xrotation
							JOINT joint_9
							{
								OFFSET 35.581055 -8.517151 -242.326965
								CHANNELS 3 Zrotation Yrotation Xrotation
								End Site
								{
									OFFSET 0.000000 0.000000 0.000000
								}
							}
						}
					}
				}
				JOINT joint_10
				{
					OFFSET 7.819092 28.232056 74.432983
					CHANNELS 3 Zrotation Yrotation Xrotation
					JOINT joint_11
					{
						OFFSET -23.457031 135.063843 -22.406982
						CHANNELS 3 Zrotation Yrotation Xrotation
						JOINT joint_12
						{
							OFFSET 17.896973 48.138672 -267.131958
							CHANNELS 3 Zrotation Yrotation Xrotation
							JOINT joint_13
							{
								OFFSET 46.526367 17.567627 -239.975037
								CHANNELS 3 Zrotation Yrotation Xrotation
								End Site
								{
									OFFSET 0.000000 0.000000 0.000000
								}
							}
						}
					}
				}
			}
		}
	}
	JOINT joint_14
	{
		OFFSET 10.553467 -100.140320 -126.306030
		CHANNELS 3 Zrotation Yrotation Xrotation
		JOINT joint_15
		{
			OFFSET -52.094238 -9.565002 -436.052002
			CHANNELS 3 Zrotation Yrotation Xrotation
			JOINT joint_16
			{
				OFFSET -55.682617 -11.310120 -462.482971
				CHANNELS 3 Zrotation Yrotation Xrotation
				JOINT joint_17
				{
					OFFSET 179.119385 -5.942566 -84.087004
					CHANNELS 3 Zrotation Yrotation Xrotation
					End Site
					{
						OFFSET 0.000000 0.000000 0.000000
					}
				}
			}
		}
	}
	JOINT joint_18
	{
		OFFSET -22.235352 101.620483 -123.583984
		CHANNELS 3 Zrotation Yrotation Xrotation
		JOINT joint_19
		{
			OFFSET -38.118408 12.306396 -437.429016
			CHANNELS 3 Zrotation Yrotation Xrotation
			JOINT joint_20
			{
				OFFSET -51.789307 8.010498 -463.006004
				CHANNELS 3 Zrotation Yrotation Xrotation
				JOINT joint_21
				{
					OFFSET 170.088135 59.632324 -83.078003
					CHANNELS 3 Zrotation Yrotation Xrotation
					End Site
					{
						OFFSET 0.000000 0.000000 0.000000
					}
				}
			}
		}
	}
}
MOTION
Frames: 11
Frame Time: 0.016667
-2850.479492 785.181335 1115.984009 -2.686005 12.043232 -2.481626 -1.547853 10.773710 5.671379 -0.923482 -2.011531 -1.300460 -0.742255 1.773128 1.041509 -1.818272 -4.060680 3.640539 0.000000 0.000000 0.000000 -9.724892 2.857240 -1.179585 -5.510473 0.777137 -12.472499 -171.952319 -68.538741 -159.236516 0.000000 0.000000 0.000000 -6.028753 8.921282 1.534325 4.298908 9.938954 19.664656 4.208757 7.823694 8.282758 0.000000 0.000000 0.000000 3.058768 -29.855965 -3.418505 0.650589 20.481641 -1.260168 0.927368 -3.417722 0.292568 0.000000 0.000000 0.000000 -3.153446 -1.042537 10.954081 -1.512181 17.534252 -5.002058 -1.550592 24.284710 -9.835017 0.000000 0.000000 0.000000 
-2835.437988 775.887695 1109.548950 -1.417418 11.704307 -2.674344 -1.868185 10.783131 5.751716 -0.887045 -1.943386 -1.305225 -0.658598 1.769480 1.065748 -1.934153 -3.579927 3.937061 0.000000 0.000000 0.000000 -9.604490 1.021744 -0.984058 -6.322191 -0.447523 -12.536084 -172.785667 -69.157189 -158.112437 0.000000 0.000000 0.000000 -6.352937 8.999238 2.204241 4.489291 9.982541 20.988746 4.389649 8.039301 8.534680 0.000000 0.000000 0.000000 2.644922 -29.717183 -2.096520 0.250798 22.328079 -2.216176 0.509500 -4.401406 0.078185 0.000000 0.000000 0.000000 -3.373306 -2.651783 12.576552 -1.395833 21.887465 -5.732011 -1.481367 25.512609 -10.534788 0.000000 0.000000 0.000000 
-2820.868408 766.679626 1102.967041 -0.062426 11.292088 -3.162328 -2.249592 11.001053 6.262881 -0.889547 -1.889169 -1.397920 -0.612710 1.729063 1.095137 -2.032662 -3.249292 4.205331 0.000000 0.000000 0.000000 -9.131683 -0.854965 -1.028894 -7.231824 -1.618528 -12.418166 -173.765655 -69.886994 -157.187739 0.000000 0.000000 0.000000 -6.529525 9.066026 3.143388 4.609899 9.989786 21.797756 4.530685 8.040129 8.803905 0.000000 0.000000 0.000000 1.764388 -30.117195 -0.574371 -0.719186 26.137965 -2.887834 -0.447279 -6.893914 -0.417415 0.000000 0.000000 0.000000 -3.702156 -4.855669 14.563430 -1.350683 27.206133 -6.294444 -1.038774 27.711558 -11.754484 0.000000 0.000000 0.000000 
-2806.486816 758.530334 1097.068970 1.129170 10.838947 -3.611075 -2.655266 11.489508 6.770866 -0.900508 -1.922727 -1.471406 -0.569999 1.692076 1.127896 -2.119349 -2.942160 4.425458 0.000000 0.000000 0.000000 -8.632166 -2.776968 -0.936745 -8.056613 -2.939601 -12.424332 -174.648410 -71.064760 -156.356326 0.000000 0.000000 0.000000 -6.618734 9.042474 4.030432 4.712584 9.948949 22.406615 4.652593 8.067840 9.009934 0.000000 0.000000 0.000000 0.921810 -30.244435 0.730034 -1.713459 29.659349 -3.347186 -1.486504 -9.295001 -0.940302 0.000000 0.000000 0.000000 -3.986951 -7.312146 16.114948 -1.409378 32.652120 -6.408985 -0.101718 29.840297 -13.080341 0.000000 0.000000 0.000000 
-2792.083496 751.995972 1092.313965 1.949628 10.433939 -3.844102 -3.095088 12.104943 7.080831 -0.871411 -1.995180 -1.524231 -0.469298 1.717080 1.176490 -2.202734 -2.581313 4.597539 0.000000 0.000000 0.000000 -8.372957 -4.748419 -0.402275 -8.622016 -4.568844 -12.718687 -175.202099 -72.886526 -155.589580 0.000000 0.000000 0.000000 -6.670231 8.890332 4.640501 4.851357 9.838967 23.031862 4.785155 8.318249 9.123083 0.000000 0.000000 0.000000 0.499833 -29.737085 1.644954 -2.398452 31.591602 -3.662573 -2.266756 -11.073646 -1.330417 0.000000 0.000000 0.000000 -3.926875 -10.100615 16.792195 -1.398365 38.185765 -5.876580 1.561478 31.007956 -13.932902 0.000000 0.000000 0.000000 
-2777.759033 746.690063 1088.369995 2.463709 10.010339 -4.012239 -3.587100 12.922931 7.374389 -0.790701 -2.122125 -1.603597 -0.291004 1.780945 1.238770 -2.278355 -2.206771 4.725086 0.000000 0.000000 0.000000 -8.260859 -6.756091 0.430141 -8.943318 -6.424914 -13.139429 -175.465035 -75.245327 -154.957490 0.000000 0.000000 0.000000 -6.669711 8.654834 5.111394 5.004466 9.673328 23.532296 4.922880 8.708005 9.182544 0.000000 0.000000 0.000000 0.325114 -28.821768 2.378319 -2.945236 32.759440 -3.840335 -2.959246 -12.790140 -1.681892 0.000000 0.000000 0.000000 -3.551662 -13.195354 16.867505 -1.384935 43.939496 -4.843300 4.134696 31.677667 -14.452588 0.000000 0.000000 0.000000 
-2763.675049 743.120911 1085.756958 2.520885 9.675432 -4.151969 -3.971382 13.818243 7.619672 -0.639922 -2.283056 -1.673694 -0.039049 1.855578 1.302732 -2.357348 -1.820483 4.838009 0.000000 0.000000 0.000000 -8.270899 -8.774801 1.329724 -8.998948 -8.424697 -13.488871 -175.462382 -78.277816 -154.383772 0.000000 0.000000 0.000000 -6.626969 8.308048 5.413940 5.141229 9.471698 23.874093 4.999300 9.066310 9.146293 0.000000 0.000000 0.000000 0.367610 -27.811314 2.892346 -3.262818 33.357167 -3.886145 -3.449235 -14.077458 -1.934316 0.000000 0.000000 0.000000 -3.413646 -15.991657 16.529625 -1.741622 49.022862 -4.560946 5.264034 31.176136 -14.692540 0.000000 0.000000 0.000000 
-2750.074219 741.856567 1084.884033 1.972822 9.556329 -4.245457 -4.109413 14.600604 7.777335 -0.406595 -2.407343 -1.705625 0.267511 1.924415 1.365046 -2.449914 -1.401941 4.959985 0.000000 0.000000 0.000000 -8.422373 -10.857439 2.154694 -8.731727 -10.587506 -13.617617 -175.187633 -82.282613 -153.675588 0.000000 0.000000 0.000000 -6.554428 7.843181 5.504260 5.218277 9.244594 23.987847 4.939626 9.215861 8.950825 0.000000 0.000000 0.000000 0.658930 -26.979719 3.041207 -3.275498 33.489047 -3.755745 -3.642600 -14.698787 -2.038819 0.000000 0.000000 0.000000 -3.823678 -18.265993 15.976250 -2.486995 53.111587 -5.932023 2.236118 28.697045 -14.636578 0.000000 0.000000 0.000000 
-2736.901611 742.694458 1085.543945 0.868029 9.611665 -4.295585 -4.035173 15.317257 7.872406 -0.100733 -2.488310 -1.710326 0.615637 1.983137 1.425425 -2.541660 -0.959097 5.059605 0.000000 0.000000 0.000000 -8.726304 -12.988841 3.002912 -8.096101 -12.934900 -13.553659 -174.640631 -87.240782 -152.966634 0.000000 0.000000 0.000000 -6.441468 7.287519 5.425299 5.243423 8.976394 23.850834 4.771230 9.217413 8.614045 0.000000 0.000000 0.000000 1.206570 -26.228143 2.845871 -3.027972 33.125339 -3.456074 -3.580218 -14.850773 -2.018396 0.000000 0.000000 0.000000 -4.275127 -20.333784 15.200641 -3.216712 56.420190 -8.191341 -3.738027 24.325161 -13.953677 0.000000 0.000000 0.000000 
-2723.513916 744.673950 1087.526001 -0.393663 9.864278 -4.342531 -3.832650 15.904739 7.941788 0.168674 -2.544146 -1.704221 0.896107 2.032126 1.457626 -2.622144 -0.568460 5.127442 0.000000 0.000000 0.000000 -8.972522 -14.802080 3.781167 -7.288502 -15.081324 -13.362625 5.952319 -87.873772 26.883630 0.000000 0.000000 0.000000 -6.306667 6.641313 5.308962 5.285780 8.651759 23.640758 4.632024 9.385774 8.281427 0.000000 0.000000 0.000000 1.785216 -25.501851 2.561385 -2.660205 32.294497 -3.185955 -3.359825 -14.535924 -1.913216 0.000000 0.000000 0.000000 -4.243397 -22.552532 14.197615 -3.611804 58.704862 -10.052481 -9.104883 19.410207 -12.666596 0.000000 0.000000 0.000000 
-2709.474365 747.247498 1090.862061 -1.547455 10.364261 -4.378605 -3.560065 16.271802 7.987419 0.334820 -2.586333 -1.700144 1.048660 2.075980 1.453353 -2.697227 -0.263801 5.193585 0.000000 0.000000 0.000000 -9.037564 -16.069569 4.272647 -6.460768 -16.714038 -12.931001 6.476181 -83.772532 25.154778 0.000000 0.000000 0.000000 -6.196695 5.873641 5.254213 5.384773 8.233433 23.472384 4.599887 9.948862 8.031949 0.000000 0.000000 0.000000 2.234986 -24.724309 2.343375 -2.261501 30.866419 -3.115800 -3.054920 -13.711371 -1.752933 0.000000 0.000000 0.000000 -3.709408 -25.111077 12.884791 -3.699557 59.944429 -11.095007 -12.431119 14.881217 -11.142185 0.000000 0.000000 0.000000 
